<svg xmlns="http://www.w3.org/2000/svg" version="1.0" width="170.000000" height="159.000000" preserveAspectRatio="xMidYMid meet" style=""><rect id="backgroundrect" width="100%" height="100%" x="0" y="0" fill="none" stroke="none"/>


<g class="currentLayer" style=""><title>Layer 1</title><g transform="translate(0,159) scale(0.10000000149011612,-0.10000000149011612) " fill="#0054a6" stroke="none" id="svg_1" class="selected" fill-opacity="1">
<path d="M820 1423 c-12 -5 -350 -294 -414 -353 -21 -21 -18 -28 40 -93 l41 -47 178 155 c98 85 181 155 185 155 4 0 81 -64 171 -142 90 -77 171 -147 180 -154 13 -12 22 -6 62 42 26 31 47 60 47 64 0 4 -94 89 -210 189 -204 177 -240 200 -280 184z" id="svg_2" fill="#0054a6" fill-opacity="1"/>
<path d="M199 771 c-18 -14 -23 -31 -27 -80 l-4 -61 63 0 64 0 13 -52 c34 -146 161 -303 295 -367 226 -108 462 -67 640 110 82 82 139 181 153 268 l7 41 64 0 65 0 -4 61 c-7 91 -20 99 -163 99 l-113 0 -4 -92 c-5 -110 -32 -180 -98 -252 -201 -218 -536 -166 -667 103 -22 44 -28 73 -31 148 l-4 93 -113 0 c-95 0 -116 -3 -136 -19z" id="svg_3" fill="#0054a6" fill-opacity="1"/>
</g></g></svg>